<?xml version="1.0" encoding="UTF-8"?>
<svg xmlns="http://www.w3.org/2000/svg" xmlns:xlink="http://www.w3.org/1999/xlink" width="34px" height="34px" viewBox="0 0 34 34" version="1.1">
<g id="surface1">
<path style=" stroke:none;fill-rule:nonzero;fill:rgb(0.392157%,0.392157%,0.392157%);fill-opacity:1;" d="M 16.59375 0.851562 L 17.492188 0.851562 L 18.207031 0.882812 L 18.953125 0.953125 L 19.601562 1.035156 L 20.332031 1.171875 L 21.078125 1.34375 L 21.777344 1.546875 L 22.390625 1.75 L 22.898438 1.953125 L 23.308594 2.125 L 23.765625 2.328125 L 24.328125 2.601562 L 24.667969 2.769531 L 25.023438 2.976562 L 25.433594 3.214844 L 26.027344 3.585938 L 26.367188 3.824219 L 26.605469 3.996094 L 26.824219 4.164062 L 27.0625 4.351562 L 27.234375 4.488281 L 27.472656 4.691406 L 27.691406 4.878906 L 27.914062 5.082031 L 28.050781 5.203125 L 28.1875 5.339844 L 28.320312 5.457031 L 28.628906 5.761719 L 28.746094 5.898438 L 28.882812 6.035156 L 29.003906 6.171875 L 29.1875 6.375 L 29.34375 6.5625 L 29.546875 6.800781 L 29.714844 7.019531 L 29.953125 7.328125 L 30.125 7.566406 L 30.363281 7.90625 L 30.53125 8.160156 L 30.734375 8.484375 L 30.941406 8.824219 L 31.210938 9.300781 L 31.449219 9.757812 L 31.585938 10.046875 L 31.703125 10.300781 L 31.976562 10.929688 L 32.214844 11.558594 L 32.417969 12.171875 L 32.570312 12.683594 L 32.757812 13.429688 L 32.894531 14.09375 L 32.980469 14.601562 L 33.082031 15.402344 L 33.117188 15.878906 L 33.132812 16.355469 L 33.132812 17.644531 L 33.097656 18.429688 L 33.015625 19.175781 L 32.878906 20.007812 L 32.726562 20.722656 L 32.519531 21.503906 L 32.316406 22.152344 L 32.128906 22.679688 L 31.925781 23.1875 L 31.652344 23.800781 L 31.449219 24.226562 L 31.261719 24.597656 L 31.042969 24.988281 L 30.785156 25.433594 L 30.582031 25.753906 L 30.414062 26.027344 L 30.191406 26.332031 L 29.988281 26.621094 L 29.765625 26.910156 L 29.5625 27.164062 L 29.410156 27.351562 L 29.222656 27.574219 L 29.054688 27.761719 L 28.933594 27.898438 L 28.695312 28.152344 L 28.558594 28.289062 L 28.441406 28.425781 L 28.304688 28.558594 L 28.167969 28.679688 L 28 28.847656 L 27.863281 28.96875 L 27.660156 29.15625 L 27.472656 29.308594 L 27.300781 29.460938 L 27.113281 29.613281 L 26.84375 29.816406 L 26.535156 30.054688 L 26.042969 30.394531 L 25.617188 30.667969 L 25.296875 30.871094 L 24.90625 31.09375 L 24.53125 31.296875 L 23.816406 31.652344 L 23.085938 31.960938 L 22.59375 32.148438 L 22.152344 32.300781 L 21.691406 32.453125 L 20.757812 32.707031 L 20.09375 32.859375 L 19.53125 32.964844 L 18.9375 33.046875 L 18.496094 33.097656 L 17.816406 33.132812 L 16.132812 33.132812 L 15.453125 33.097656 L 14.757812 33.015625 L 13.957031 32.878906 L 13.429688 32.757812 L 12.648438 32.554688 L 12.136719 32.402344 L 11.339844 32.128906 L 10.691406 31.875 L 10.097656 31.621094 L 9.417969 31.28125 L 9.027344 31.058594 L 8.722656 30.890625 L 8.074219 30.480469 L 7.804688 30.292969 L 7.464844 30.054688 L 7.191406 29.851562 L 6.765625 29.511719 L 6.289062 29.105469 L 5.847656 28.695312 L 5.730469 28.578125 L 5.59375 28.457031 L 5.441406 28.304688 L 5.320312 28.167969 L 5.152344 28 L 5.03125 27.863281 L 4.828125 27.640625 L 4.675781 27.453125 L 4.453125 27.199219 L 4.285156 26.980469 L 4.097656 26.742188 L 3.910156 26.484375 L 3.671875 26.144531 L 3.46875 25.839844 L 3.214844 25.433594 L 2.976562 25.023438 L 2.738281 24.597656 L 2.3125 23.75 L 2.074219 23.203125 L 1.835938 22.59375 L 1.683594 22.152344 L 1.53125 21.691406 L 1.324219 20.960938 L 1.15625 20.214844 L 1.019531 19.449219 L 0.933594 18.785156 L 0.882812 18.273438 L 0.851562 17.40625 L 0.851562 16.675781 L 0.882812 15.707031 L 0.917969 15.335938 L 0.984375 14.808594 L 1.054688 14.363281 L 1.171875 13.71875 L 1.324219 13.054688 L 1.460938 12.546875 L 1.613281 12.054688 L 1.851562 11.355469 L 2.125 10.675781 L 2.347656 10.183594 L 2.53125 9.792969 L 2.789062 9.28125 L 2.992188 8.925781 L 3.160156 8.636719 L 3.367188 8.3125 L 3.605469 7.9375 L 3.789062 7.683594 L 3.996094 7.394531 L 4.214844 7.105469 L 4.589844 6.628906 L 4.761719 6.441406 L 4.878906 6.308594 L 5.03125 6.136719 L 5.152344 6 L 5.421875 5.710938 L 5.847656 5.285156 L 5.984375 5.167969 L 6.101562 5.050781 L 6.238281 4.929688 L 6.410156 4.777344 L 6.597656 4.625 L 6.816406 4.4375 L 7.121094 4.199219 L 7.34375 4.027344 L 7.648438 3.808594 L 7.988281 3.570312 L 8.347656 3.347656 L 8.824219 3.058594 L 9.214844 2.839844 L 9.605469 2.636719 L 10.21875 2.328125 L 10.796875 2.074219 L 11.339844 1.851562 L 11.796875 1.683594 L 12.375 1.496094 L 13.054688 1.308594 L 13.753906 1.15625 L 14.195312 1.070312 L 14.859375 0.96875 L 15.503906 0.902344 L 16.066406 0.867188 Z M 16.59375 0.851562 "/>
<path style=" stroke:none;fill-rule:nonzero;fill:rgb(4.313725%,49.803922%,3.529412%);fill-opacity:1;" d="M 16.984375 5.898438 L 17.015625 5.898438 L 17.015625 5.933594 L 17.085938 5.96875 L 17.304688 6.136719 L 17.78125 6.492188 L 18.003906 6.664062 L 18.273438 6.867188 L 18.496094 7.039062 L 18.972656 7.394531 L 19.210938 7.582031 L 19.296875 7.632812 L 19.3125 9.605469 L 19.3125 11.167969 L 19.296875 22.441406 L 19.277344 26.351562 L 19.125 26.46875 L 18.886719 26.65625 L 18.34375 27.0625 L 17.984375 27.335938 L 17.78125 27.488281 L 17.460938 27.726562 L 17.289062 27.863281 L 17.101562 28 L 17 28.015625 L 16.984375 28 L 17 27.421875 L 17 24.34375 L 16.984375 23.78125 L 16.984375 23.511719 L 16.964844 22.949219 L 16.949219 21.386719 L 16.949219 19.992188 L 16.933594 19.667969 L 16.914062 18.632812 L 16.898438 18.308594 L 16.882812 18.222656 L 16.882812 17.953125 L 16.847656 17.78125 L 16.847656 17.59375 L 16.8125 17.492188 L 16.8125 17.304688 L 16.761719 17.171875 L 16.726562 17.035156 L 16.726562 16.898438 L 16.695312 16.726562 L 16.660156 16.625 L 16.660156 16.523438 L 16.625 16.457031 L 16.59375 16.4375 L 16.574219 16.335938 L 16.609375 16.269531 L 16.574219 16.234375 L 16.574219 16.183594 L 16.523438 16.167969 L 16.523438 16.132812 L 16.488281 16.132812 L 16.488281 16.167969 L 16.457031 16.183594 L 16.457031 16.21875 L 16.386719 16.234375 L 16.320312 16.234375 L 16.320312 16.269531 L 16.269531 16.285156 L 16.285156 16.320312 L 16.21875 16.335938 L 16.21875 16.269531 L 16.183594 16.21875 L 16.167969 16.269531 L 16.097656 16.304688 L 16.082031 16.335938 L 16.066406 16.421875 L 15.996094 16.386719 L 15.945312 16.4375 L 15.910156 16.539062 L 15.828125 16.539062 L 15.777344 16.625 L 15.757812 16.695312 L 15.691406 16.675781 L 15.691406 16.726562 L 15.621094 16.777344 L 15.554688 16.796875 L 15.519531 16.898438 L 15.402344 16.898438 L 15.367188 16.964844 L 15.300781 17.015625 L 15.230469 16.984375 L 15.230469 16.847656 L 15.265625 16.847656 L 15.25 16.8125 L 15.148438 16.8125 L 15.078125 16.746094 L 15.0625 16.847656 L 14.976562 16.847656 L 14.976562 16.746094 L 14.890625 16.59375 L 14.890625 16.285156 L 14.859375 16.285156 L 14.875 16.199219 L 14.859375 16.082031 L 14.875 15.964844 L 14.839844 15.945312 L 14.824219 15.777344 L 14.808594 15.589844 L 14.808594 15.28125 L 14.789062 15.214844 L 14.789062 15.011719 L 14.773438 14.960938 L 14.773438 14.738281 L 14.757812 14.652344 L 14.757812 14.414062 L 14.738281 14.398438 L 14.738281 14.074219 L 14.722656 13.972656 L 14.722656 13.601562 L 14.703125 13.496094 L 14.703125 13.261719 L 14.6875 13.054688 L 14.671875 12.921875 L 14.652344 21.84375 L 14.652344 22.40625 L 14.636719 24.15625 L 14.601562 24.226562 L 14.414062 24.359375 L 14.109375 24.597656 L 13.871094 24.769531 L 13.785156 24.835938 L 13.582031 24.988281 L 13.363281 25.160156 L 13.191406 25.277344 L 13.125 25.277344 L 13.105469 25.175781 L 13.125 24.820312 L 13.125 21.964844 L 13.105469 21.554688 L 13.105469 20.875 L 13.089844 19.6875 L 13.039062 18.15625 L 13.023438 17.917969 L 13.023438 17.730469 L 12.988281 17.40625 L 12.988281 17.324219 L 12.953125 17.222656 L 12.9375 17 L 12.886719 16.984375 L 12.851562 16.761719 L 12.886719 16.644531 L 12.851562 16.644531 L 12.816406 16.472656 L 12.75 16.457031 L 12.75 16.335938 L 12.785156 16.335938 L 12.734375 16.253906 L 12.664062 16.21875 L 12.664062 16.183594 L 12.632812 16.183594 L 12.613281 16.148438 L 12.5625 16.183594 L 12.578125 16.066406 L 12.496094 16.046875 L 12.375 16.117188 L 12.34375 16.132812 L 12.324219 16.183594 L 12.222656 16.21875 L 12.1875 16.285156 L 12.105469 16.371094 L 12.019531 16.421875 L 11.898438 16.421875 L 11.933594 16.4375 L 12.003906 16.457031 L 12.003906 16.488281 L 11.847656 16.539062 L 11.867188 16.625 L 11.78125 16.695312 L 11.746094 16.675781 L 11.746094 16.59375 L 11.660156 16.675781 L 11.609375 16.710938 L 11.492188 16.726562 L 11.40625 16.746094 L 11.40625 16.644531 L 11.304688 16.675781 L 11.289062 16.609375 L 11.21875 16.59375 L 11.1875 16.660156 L 11.167969 16.726562 L 11.101562 16.746094 L 11.117188 16.644531 L 11.101562 16.644531 L 11.066406 16.457031 L 11.066406 16.355469 L 11.03125 16.355469 L 11.015625 16.304688 L 11.015625 16.253906 L 10.980469 16.21875 L 10.964844 15.964844 L 10.929688 15.929688 L 10.964844 15.859375 L 10.914062 15.742188 L 10.929688 15.570312 L 10.914062 15.417969 L 10.929688 15.386719 L 10.898438 15.386719 L 10.898438 15.097656 L 10.878906 15.097656 L 10.863281 14.992188 L 10.898438 14.992188 L 10.878906 14.875 L 10.863281 14.601562 L 10.847656 14.414062 L 10.8125 14.179688 L 10.796875 18.359375 L 10.796875 19.109375 L 10.777344 21.421875 L 10.691406 21.503906 L 10.472656 21.675781 L 9.929688 22.082031 L 9.671875 22.269531 L 9.367188 22.507812 L 9.246094 22.59375 L 9.179688 22.574219 L 9.164062 22.472656 L 9.179688 21.945312 L 9.179688 21.300781 L 9.164062 19.328125 L 9.144531 19.242188 L 9.09375 18.292969 L 9.078125 18.089844 L 9.0625 17.917969 L 9.027344 17.59375 L 8.992188 17.441406 L 8.941406 17.203125 L 8.90625 17.117188 L 8.875 16.964844 L 8.824219 16.8125 L 8.824219 16.710938 L 8.789062 16.710938 L 8.722656 16.625 L 8.652344 16.457031 L 8.5 16.457031 L 8.5 16.507812 L 8.433594 16.539062 L 8.382812 16.472656 L 8.398438 16.421875 L 8.3125 16.40625 L 8.210938 16.488281 L 8.195312 16.558594 L 8.144531 16.558594 L 8.09375 16.539062 L 8.074219 16.574219 L 7.9375 16.625 L 7.90625 16.660156 L 7.835938 16.625 L 7.71875 16.660156 L 7.667969 16.644531 L 7.566406 16.726562 L 7.496094 16.675781 L 7.429688 16.710938 L 7.292969 16.710938 L 7.292969 16.746094 L 7.257812 16.746094 L 7.226562 16.8125 L 7.175781 16.863281 L 7.140625 16.863281 L 7.089844 16.8125 L 7.054688 16.847656 L 6.988281 16.828125 L 6.96875 16.625 L 6.9375 15.945312 L 6.917969 15.84375 L 6.902344 15.691406 L 6.886719 15.640625 L 6.867188 13.074219 L 6.867188 12.511719 L 7.207031 12.257812 L 7.429688 12.085938 L 8.246094 11.476562 L 8.566406 11.238281 L 8.925781 10.964844 L 9.113281 10.8125 L 9.195312 10.777344 L 9.265625 10.863281 L 9.554688 11.066406 L 9.996094 11.40625 L 10.183594 11.542969 L 10.660156 11.898438 L 10.691406 11.933594 L 10.761719 11.949219 L 10.777344 11.796875 L 10.777344 10.046875 L 10.828125 9.996094 L 11.101562 9.792969 L 11.320312 9.621094 L 11.558594 9.453125 L 11.78125 9.28125 L 12.257812 8.925781 L 12.578125 8.6875 L 12.785156 8.535156 L 13.105469 8.296875 L 13.191406 8.328125 L 13.328125 8.449219 L 13.496094 8.566406 L 13.785156 8.789062 L 14.007812 8.960938 L 14.28125 9.164062 L 14.449219 9.28125 L 14.449219 9.316406 L 14.519531 9.351562 L 14.601562 9.402344 L 14.636719 9.402344 L 14.636719 7.667969 L 14.722656 7.582031 L 15.011719 7.359375 L 15.316406 7.140625 L 15.539062 6.96875 L 15.859375 6.730469 L 16.132812 6.527344 L 16.457031 6.289062 L 16.746094 6.070312 L 16.949219 5.914062 Z M 16.984375 5.898438 "/>
<path style=" stroke:none;fill-rule:nonzero;fill:rgb(12.941176%,94.117647%,3.137255%);fill-opacity:1;" d="M 16.59375 0.851562 L 17.492188 0.851562 L 18.207031 0.882812 L 18.953125 0.953125 L 19.601562 1.035156 L 20.332031 1.171875 L 21.078125 1.34375 L 21.777344 1.546875 L 22.390625 1.75 L 22.898438 1.953125 L 23.308594 2.125 L 23.765625 2.328125 L 24.328125 2.601562 L 24.667969 2.769531 L 25.023438 2.976562 L 25.433594 3.214844 L 26.027344 3.585938 L 26.367188 3.824219 L 26.605469 3.996094 L 26.824219 4.164062 L 27.0625 4.351562 L 27.234375 4.488281 L 27.472656 4.691406 L 27.691406 4.878906 L 27.914062 5.082031 L 28.050781 5.203125 L 28.1875 5.339844 L 28.320312 5.457031 L 28.628906 5.761719 L 28.746094 5.898438 L 28.882812 6.035156 L 29.003906 6.171875 L 29.1875 6.375 L 29.34375 6.5625 L 29.546875 6.800781 L 29.714844 7.019531 L 29.953125 7.328125 L 30.125 7.566406 L 30.363281 7.90625 L 30.53125 8.160156 L 30.734375 8.484375 L 30.941406 8.824219 L 31.210938 9.300781 L 31.449219 9.757812 L 31.585938 10.046875 L 31.703125 10.300781 L 31.976562 10.929688 L 32.214844 11.558594 L 32.417969 12.171875 L 32.570312 12.683594 L 32.757812 13.429688 L 32.894531 14.09375 L 32.980469 14.601562 L 33.082031 15.402344 L 33.117188 15.878906 L 33.132812 16.355469 L 33.132812 17.644531 L 33.097656 18.429688 L 33.015625 19.175781 L 32.878906 20.007812 L 32.726562 20.722656 L 32.519531 21.503906 L 32.316406 22.152344 L 32.128906 22.679688 L 31.925781 23.1875 L 31.652344 23.800781 L 31.449219 24.226562 L 31.261719 24.597656 L 31.042969 24.988281 L 30.785156 25.433594 L 30.582031 25.753906 L 30.414062 26.027344 L 30.191406 26.332031 L 29.988281 26.621094 L 29.765625 26.910156 L 29.5625 27.164062 L 29.410156 27.351562 L 29.222656 27.574219 L 29.054688 27.761719 L 28.933594 27.898438 L 28.695312 28.152344 L 28.558594 28.289062 L 28.441406 28.425781 L 28.304688 28.558594 L 28.167969 28.679688 L 28 28.847656 L 27.863281 28.96875 L 27.660156 29.15625 L 27.472656 29.308594 L 27.300781 29.460938 L 27.113281 29.613281 L 26.84375 29.816406 L 26.535156 30.054688 L 26.042969 30.394531 L 25.617188 30.667969 L 25.296875 30.871094 L 24.90625 31.09375 L 24.53125 31.296875 L 23.816406 31.652344 L 23.085938 31.960938 L 22.59375 32.148438 L 22.152344 32.300781 L 21.691406 32.453125 L 20.757812 32.707031 L 20.09375 32.859375 L 19.53125 32.964844 L 18.9375 33.046875 L 18.496094 33.097656 L 17.816406 33.132812 L 16.132812 33.132812 L 15.453125 33.097656 L 14.757812 33.015625 L 13.957031 32.878906 L 13.429688 32.757812 L 12.648438 32.554688 L 12.136719 32.402344 L 11.339844 32.128906 L 10.691406 31.875 L 10.097656 31.621094 L 9.417969 31.28125 L 9.027344 31.058594 L 8.722656 30.890625 L 8.074219 30.480469 L 7.804688 30.292969 L 7.464844 30.054688 L 7.191406 29.851562 L 6.765625 29.511719 L 6.289062 29.105469 L 5.847656 28.695312 L 5.730469 28.578125 L 5.59375 28.457031 L 5.441406 28.304688 L 5.320312 28.167969 L 5.152344 28 L 5.03125 27.863281 L 4.828125 27.640625 L 4.675781 27.453125 L 4.453125 27.199219 L 4.285156 26.980469 L 4.097656 26.742188 L 3.910156 26.484375 L 3.671875 26.144531 L 3.46875 25.839844 L 3.214844 25.433594 L 2.976562 25.023438 L 2.738281 24.597656 L 2.3125 23.75 L 2.074219 23.203125 L 1.835938 22.59375 L 1.683594 22.152344 L 1.53125 21.691406 L 1.324219 20.960938 L 1.15625 20.214844 L 1.019531 19.449219 L 0.933594 18.785156 L 0.882812 18.273438 L 0.851562 17.40625 L 0.851562 16.675781 L 0.882812 15.707031 L 0.917969 15.335938 L 0.984375 14.808594 L 1.054688 14.363281 L 1.171875 13.71875 L 1.324219 13.054688 L 1.460938 12.546875 L 1.613281 12.054688 L 1.851562 11.355469 L 2.125 10.675781 L 2.347656 10.183594 L 2.53125 9.792969 L 2.789062 9.28125 L 2.992188 8.925781 L 3.160156 8.636719 L 3.367188 8.3125 L 3.605469 7.9375 L 3.789062 7.683594 L 3.996094 7.394531 L 4.214844 7.105469 L 4.589844 6.628906 L 4.761719 6.441406 L 4.878906 6.308594 L 5.03125 6.136719 L 5.152344 6 L 5.421875 5.710938 L 5.847656 5.285156 L 5.984375 5.167969 L 6.101562 5.050781 L 6.238281 4.929688 L 6.410156 4.777344 L 6.597656 4.625 L 6.816406 4.4375 L 7.121094 4.199219 L 7.34375 4.027344 L 7.648438 3.808594 L 7.988281 3.570312 L 8.347656 3.347656 L 8.824219 3.058594 L 9.214844 2.839844 L 9.605469 2.636719 L 10.21875 2.328125 L 10.796875 2.074219 L 11.339844 1.851562 L 11.796875 1.683594 L 12.375 1.496094 L 13.054688 1.308594 L 13.753906 1.15625 L 14.195312 1.070312 L 14.859375 0.96875 L 15.503906 0.902344 L 16.066406 0.867188 Z M 16.371094 1.53125 L 15.777344 1.5625 L 14.992188 1.648438 L 14.246094 1.769531 L 13.804688 1.851562 L 13.582031 1.886719 L 13.480469 1.921875 L 13.210938 1.972656 L 13.023438 2.023438 L 13.023438 2.058594 L 12.902344 2.058594 L 12.546875 2.160156 L 12.546875 2.191406 L 12.34375 2.226562 L 12.222656 2.277344 L 12.019531 2.328125 L 11.679688 2.449219 L 11.679688 2.480469 L 11.59375 2.5 L 11.253906 2.617188 L 11.203125 2.636719 L 11.203125 2.667969 L 11.117188 2.6875 L 10.929688 2.753906 L 10.796875 2.820312 L 10.675781 2.871094 L 10.488281 2.941406 L 10.488281 2.976562 L 10.386719 3.007812 L 10.21875 3.09375 L 10.046875 3.160156 L 9.808594 3.28125 L 9.808594 3.316406 L 9.640625 3.367188 L 9.554688 3.417969 L 9.554688 3.449219 L 9.46875 3.46875 L 9.402344 3.503906 L 9.402344 3.535156 L 9.316406 3.554688 L 9.316406 3.585938 L 9.164062 3.636719 L 9.164062 3.671875 L 9.078125 3.707031 L 8.925781 3.773438 L 8.90625 3.824219 L 8.824219 3.84375 L 8.414062 4.097656 L 8.226562 4.234375 L 8.226562 4.265625 L 8.144531 4.285156 L 8.058594 4.351562 L 8.058594 4.386719 L 7.972656 4.402344 L 7.699219 4.605469 L 7.617188 4.691406 L 7.496094 4.761719 L 7.410156 4.828125 L 7.378906 4.878906 L 7.292969 4.914062 L 7.121094 5.066406 L 7.089844 5.082031 L 7.089844 5.132812 L 7.019531 5.152344 L 6.851562 5.285156 L 6.628906 5.492188 L 6.492188 5.609375 L 6.308594 5.796875 L 6.171875 5.914062 L 5.847656 6.238281 L 5.730469 6.375 L 5.507812 6.597656 L 5.472656 6.679688 L 5.339844 6.800781 L 5.167969 6.988281 L 4.980469 7.226562 L 4.828125 7.410156 L 4.691406 7.582031 L 4.65625 7.667969 L 4.574219 7.753906 L 4.503906 7.871094 L 4.421875 7.957031 L 4.351562 8.039062 L 4.300781 8.160156 L 4.097656 8.449219 L 4.097656 8.484375 L 4.027344 8.515625 L 3.976562 8.636719 L 3.910156 8.753906 L 3.824219 8.839844 L 3.757812 8.992188 L 3.605469 9.246094 L 3.535156 9.332031 L 3.449219 9.535156 L 3.246094 9.910156 L 3.144531 10.113281 L 3.144531 10.148438 L 3.109375 10.148438 L 3.027344 10.371094 L 2.941406 10.539062 L 2.941406 10.574219 L 2.90625 10.574219 L 2.789062 10.828125 L 2.753906 10.964844 L 2.53125 11.507812 L 2.398438 11.882812 L 2.398438 11.933594 L 2.363281 11.933594 L 2.261719 12.273438 L 2.125 12.714844 L 2.089844 12.765625 L 2.058594 12.972656 L 1.902344 13.582031 L 1.769531 14.246094 L 1.664062 14.875 L 1.597656 15.453125 L 1.546875 16.199219 L 1.546875 17.816406 L 1.597656 18.546875 L 1.683594 19.242188 L 1.800781 19.941406 L 1.972656 20.707031 L 2.175781 21.4375 L 2.378906 22.066406 L 2.585938 22.609375 L 2.855469 23.273438 L 2.976562 23.527344 L 3.265625 24.121094 L 3.503906 24.546875 L 3.554688 24.699219 L 3.605469 24.71875 L 3.636719 24.804688 L 3.707031 24.957031 L 3.773438 25.023438 L 3.910156 25.246094 L 3.960938 25.347656 L 3.996094 25.347656 L 4.027344 25.464844 L 4.097656 25.535156 L 4.164062 25.671875 L 4.214844 25.703125 L 4.285156 25.839844 L 4.367188 25.960938 L 4.402344 25.976562 L 4.472656 26.113281 L 4.539062 26.164062 L 4.574219 26.230469 L 4.605469 26.230469 L 4.625 26.300781 L 4.65625 26.300781 L 4.675781 26.367188 L 4.894531 26.65625 L 4.980469 26.757812 L 5.015625 26.773438 L 5.066406 26.878906 L 5.234375 27.0625 L 5.390625 27.25 L 5.59375 27.4375 L 5.644531 27.523438 L 5.914062 27.777344 L 5.96875 27.863281 L 6.324219 28.21875 L 6.460938 28.339844 L 6.597656 28.476562 L 6.78125 28.628906 L 7.003906 28.832031 L 7.242188 29.019531 L 7.445312 29.1875 L 7.515625 29.238281 L 7.597656 29.273438 L 7.683594 29.375 L 7.886719 29.527344 L 7.957031 29.546875 L 8.039062 29.632812 L 8.3125 29.816406 L 8.398438 29.886719 L 8.464844 29.886719 L 8.484375 29.9375 L 8.585938 30.003906 L 8.703125 30.054688 L 8.789062 30.105469 L 8.839844 30.15625 L 8.976562 30.226562 L 9.011719 30.226562 L 9.027344 30.277344 L 9.144531 30.328125 L 9.382812 30.464844 L 9.417969 30.464844 L 9.417969 30.496094 L 9.570312 30.566406 L 9.671875 30.617188 L 9.707031 30.617188 L 9.722656 30.667969 L 9.894531 30.734375 L 10.132812 30.855469 L 10.164062 30.855469 L 10.164062 30.890625 L 10.421875 30.992188 L 10.523438 31.042969 L 10.558594 31.042969 L 10.558594 31.074219 L 10.625 31.109375 L 10.710938 31.109375 L 10.710938 31.144531 L 10.777344 31.179688 L 10.863281 31.179688 L 10.863281 31.210938 L 11.167969 31.347656 L 11.304688 31.382812 L 11.390625 31.414062 L 11.441406 31.414062 L 11.441406 31.449219 L 11.527344 31.484375 L 11.628906 31.484375 L 11.628906 31.519531 L 11.660156 31.535156 L 11.765625 31.535156 L 11.765625 31.570312 L 12.105469 31.671875 L 12.308594 31.738281 L 12.359375 31.738281 L 12.359375 31.773438 L 12.648438 31.839844 L 12.835938 31.890625 L 12.886719 31.890625 L 12.886719 31.925781 L 13.191406 31.992188 L 13.871094 32.148438 L 13.972656 32.148438 L 13.972656 32.179688 L 14.332031 32.230469 L 14.433594 32.265625 L 15.25 32.367188 L 15.929688 32.4375 L 16.253906 32.453125 L 17.730469 32.453125 L 18.292969 32.417969 L 19.074219 32.335938 L 19.6875 32.230469 L 20.382812 32.097656 L 20.996094 31.941406 L 21.523438 31.789062 L 22.203125 31.570312 L 22.8125 31.332031 L 23.289062 31.128906 L 23.613281 30.972656 L 23.730469 30.941406 L 23.730469 30.90625 L 23.835938 30.871094 L 24.003906 30.785156 L 24.105469 30.753906 L 24.105469 30.71875 L 24.226562 30.683594 L 24.359375 30.601562 L 24.582031 30.480469 L 24.785156 30.363281 L 24.886719 30.3125 L 25.039062 30.210938 L 25.226562 30.089844 L 25.277344 30.074219 L 25.277344 30.039062 L 25.398438 30.003906 L 25.398438 29.972656 L 25.484375 29.9375 L 25.804688 29.714844 L 25.839844 29.699219 L 25.839844 29.664062 L 25.925781 29.632812 L 26.09375 29.527344 L 26.128906 29.476562 L 26.230469 29.425781 L 26.246094 29.375 L 26.332031 29.34375 L 26.453125 29.238281 L 26.519531 29.207031 L 26.605469 29.121094 L 26.722656 29.035156 L 26.722656 29.003906 L 26.808594 28.96875 L 26.808594 28.933594 L 26.894531 28.898438 L 26.960938 28.832031 L 27.097656 28.714844 L 27.21875 28.609375 L 27.335938 28.527344 L 27.335938 28.492188 L 27.402344 28.457031 L 27.488281 28.355469 L 27.675781 28.203125 L 28.269531 27.609375 L 28.390625 27.472656 L 28.457031 27.386719 L 28.542969 27.300781 L 28.558594 27.25 L 28.628906 27.21875 L 28.660156 27.148438 L 28.765625 27.0625 L 28.796875 26.996094 L 28.882812 26.929688 L 28.917969 26.859375 L 28.96875 26.824219 L 28.96875 26.773438 L 29.035156 26.742188 L 29.136719 26.589844 L 29.238281 26.46875 L 29.273438 26.382812 L 29.34375 26.351562 L 29.445312 26.214844 L 29.445312 26.164062 L 29.496094 26.144531 L 29.578125 25.992188 L 29.613281 25.976562 L 29.613281 25.925781 L 29.648438 25.925781 L 29.664062 25.875 L 29.75 25.789062 L 29.765625 25.703125 L 29.835938 25.671875 L 29.886719 25.585938 L 29.886719 25.535156 L 29.921875 25.535156 L 29.921875 25.484375 L 29.953125 25.484375 L 29.972656 25.398438 L 30.003906 25.398438 L 30.054688 25.3125 L 30.054688 25.261719 L 30.089844 25.261719 L 30.15625 25.125 L 30.175781 25.074219 L 30.226562 25.058594 L 30.226562 24.988281 L 30.261719 24.988281 L 30.3125 24.886719 L 30.3125 24.855469 L 30.363281 24.835938 L 30.378906 24.734375 L 30.429688 24.71875 L 30.464844 24.632812 L 30.464844 24.582031 L 30.496094 24.582031 L 30.550781 24.429688 L 30.582031 24.429688 L 30.652344 24.277344 L 30.652344 24.242188 L 30.703125 24.226562 L 30.785156 24.019531 L 30.785156 23.96875 L 30.820312 23.96875 L 30.855469 23.835938 L 30.90625 23.816406 L 30.957031 23.664062 L 31.058594 23.460938 L 31.058594 23.425781 L 31.09375 23.425781 L 31.246094 23.019531 L 31.261719 22.949219 L 31.296875 22.949219 L 31.382812 22.695312 L 31.398438 22.609375 L 31.433594 22.609375 L 31.585938 22.152344 L 31.585938 22.101562 L 31.621094 22.101562 L 31.703125 21.84375 L 31.757812 21.640625 L 31.808594 21.523438 L 31.839844 21.367188 L 31.875 21.300781 L 31.960938 20.945312 L 31.992188 20.859375 L 32.027344 20.6875 L 32.0625 20.585938 L 32.214844 19.839844 L 32.316406 19.210938 L 32.386719 18.648438 L 32.417969 18.292969 L 32.4375 18.242188 L 32.453125 17.96875 L 32.453125 16.355469 L 32.402344 15.417969 L 32.386719 15.199219 L 32.351562 15.199219 L 32.335938 14.941406 L 32.25 14.398438 L 32.128906 13.769531 L 32.097656 13.566406 L 32.0625 13.464844 L 32.011719 13.210938 L 31.960938 13.054688 L 31.925781 12.886719 L 31.890625 12.800781 L 31.859375 12.648438 L 31.824219 12.527344 L 31.703125 12.207031 L 31.671875 12.054688 L 31.601562 11.898438 L 31.550781 11.746094 L 31.5 11.578125 L 31.433594 11.40625 L 31.332031 11.1875 L 31.160156 10.761719 L 31.023438 10.453125 L 30.957031 10.320312 L 30.785156 9.996094 L 30.71875 9.859375 L 30.683594 9.773438 L 30.582031 9.570312 L 30.394531 9.246094 L 30.363281 9.214844 L 30.328125 9.128906 L 30.292969 9.128906 L 30.277344 9.042969 L 30.226562 8.992188 L 30.175781 8.875 L 30.023438 8.636719 L 29.988281 8.636719 L 29.953125 8.515625 L 29.765625 8.246094 L 29.683594 8.125 L 29.648438 8.125 L 29.632812 8.039062 L 29.375 7.699219 L 29.308594 7.617188 L 29.273438 7.617188 L 29.257812 7.546875 L 29.222656 7.546875 L 29.207031 7.480469 L 29.019531 7.242188 L 28.917969 7.121094 L 28.882812 7.121094 L 28.867188 7.054688 L 28.714844 6.886719 L 28.679688 6.867188 L 28.628906 6.78125 L 28.578125 6.730469 L 28.542969 6.730469 L 28.527344 6.664062 L 28.441406 6.578125 L 28.40625 6.578125 L 28.390625 6.511719 L 28.167969 6.289062 L 28.136719 6.273438 L 28.085938 6.1875 L 27.742188 5.847656 L 27.660156 5.796875 L 27.421875 5.542969 L 27.351562 5.472656 L 27.320312 5.472656 L 27.320312 5.441406 L 27.21875 5.390625 L 27.148438 5.304688 L 27.0625 5.253906 L 26.980469 5.152344 L 26.859375 5.082031 L 26.84375 5.03125 L 26.742188 4.980469 L 26.691406 4.914062 L 26.640625 4.914062 L 26.605469 4.84375 L 26.402344 4.691406 L 26.316406 4.625 L 26.265625 4.625 L 26.230469 4.554688 L 26.144531 4.539062 L 26.128906 4.488281 L 26.078125 4.488281 L 26.042969 4.421875 L 25.960938 4.402344 L 25.925781 4.335938 L 25.652344 4.148438 L 25.363281 3.960938 L 25.3125 3.960938 L 25.3125 3.925781 L 25.144531 3.824219 L 25.09375 3.824219 L 25.09375 3.789062 L 24.988281 3.738281 L 24.957031 3.738281 L 24.957031 3.707031 L 24.753906 3.605469 L 24.71875 3.605469 L 24.71875 3.570312 L 24.597656 3.519531 L 24.566406 3.519531 L 24.546875 3.46875 L 24.480469 3.433594 L 24.410156 3.433594 L 24.410156 3.398438 L 24.328125 3.347656 L 24.257812 3.347656 L 24.242188 3.296875 L 23.867188 3.109375 L 23.714844 3.058594 L 23.578125 2.992188 L 23.546875 2.992188 L 23.546875 2.957031 L 23.390625 2.90625 L 23.359375 2.90625 L 23.359375 2.871094 L 23.121094 2.789062 L 22.949219 2.703125 L 22.796875 2.667969 L 22.796875 2.636719 L 22.507812 2.53125 L 22.457031 2.53125 L 22.457031 2.5 L 22.183594 2.414062 L 22.082031 2.398438 L 22.082031 2.363281 L 21.828125 2.296875 L 21.792969 2.261719 L 21.503906 2.191406 L 21.453125 2.191406 L 21.453125 2.160156 L 21.183594 2.089844 L 21.0625 2.058594 L 20.996094 2.058594 L 20.996094 2.023438 L 20.519531 1.921875 L 20.214844 1.851562 L 20.128906 1.851562 L 20.128906 1.820312 L 19.585938 1.734375 L 18.902344 1.632812 L 18.222656 1.5625 L 17.730469 1.53125 Z M 16.371094 1.53125 "/>
<path style=" stroke:none;fill-rule:nonzero;fill:rgb(4.313725%,49.803922%,3.529412%);fill-opacity:1;" d="M 20.894531 8.296875 L 20.960938 8.3125 L 21.148438 8.464844 L 21.386719 8.636719 L 21.625 8.824219 L 21.828125 8.976562 L 22.050781 9.144531 L 22.320312 9.351562 L 22.679688 9.621094 L 22.949219 9.824219 L 23.1875 10.011719 L 23.238281 10.046875 L 23.238281 11.96875 L 23.257812 12.324219 L 23.238281 18.9375 L 23.222656 23.578125 L 23.070312 23.714844 L 22.730469 23.96875 L 22.507812 24.140625 L 22.167969 24.394531 L 21.863281 24.632812 L 21.625 24.804688 L 20.960938 25.3125 L 20.945312 25.277344 L 20.910156 25.277344 L 20.910156 24.242188 L 20.875 22.574219 L 20.875 13.15625 Z M 20.894531 8.296875 "/>
<path style=" stroke:none;fill-rule:nonzero;fill:rgb(0%,27.45098%,0%);fill-opacity:1;" d="M 20.875 8.3125 L 20.894531 8.3125 L 20.894531 22.574219 L 20.925781 24.378906 L 20.925781 24.90625 L 20.910156 25.277344 L 20.945312 25.277344 L 20.960938 25.328125 L 20.894531 25.347656 L 20.808594 25.261719 L 20.535156 25.058594 L 20.179688 24.785156 L 19.941406 24.597656 L 19.738281 24.445312 L 19.414062 24.207031 L 19.347656 24.15625 L 19.3125 24.15625 L 19.296875 26.332031 L 19.277344 26.332031 L 19.277344 22.183594 L 19.296875 11.167969 L 19.296875 9.484375 L 19.414062 9.433594 L 19.515625 9.351562 L 19.550781 9.351562 L 19.550781 9.316406 L 19.703125 9.214844 L 19.957031 9.011719 L 20.09375 8.90625 L 20.347656 8.722656 L 20.605469 8.515625 L 20.789062 8.363281 Z M 20.875 8.3125 "/>
<path style=" stroke:none;fill-rule:nonzero;fill:rgb(0%,27.058824%,0%);fill-opacity:1;" d="M 14.652344 12.902344 L 14.6875 12.921875 L 14.703125 13.054688 L 14.722656 13.378906 L 14.722656 13.515625 L 14.738281 13.601562 L 14.738281 13.992188 L 14.757812 14.074219 L 14.757812 14.398438 L 14.773438 14.414062 L 14.773438 14.671875 L 14.789062 14.808594 L 14.789062 14.992188 L 14.808594 15.027344 L 14.808594 15.214844 L 14.824219 15.386719 L 14.824219 15.675781 L 14.859375 15.910156 L 14.875 15.996094 L 14.875 16.167969 L 14.890625 16.234375 L 14.859375 16.285156 L 14.910156 16.269531 L 14.910156 16.609375 L 14.992188 16.746094 L 14.976562 16.847656 L 15.0625 16.847656 L 15.0625 16.726562 L 15.113281 16.746094 L 15.164062 16.796875 L 15.25 16.796875 L 15.265625 16.847656 L 15.230469 16.847656 L 15.25 16.898438 L 15.25 16.984375 L 15.316406 16.984375 L 15.367188 16.964844 L 15.386719 16.898438 L 15.4375 16.882812 L 15.519531 16.898438 L 15.539062 16.796875 L 15.640625 16.746094 L 15.691406 16.726562 L 15.675781 16.660156 L 15.757812 16.675781 L 15.777344 16.574219 L 15.828125 16.523438 L 15.910156 16.523438 L 15.945312 16.421875 L 16.015625 16.371094 L 16.015625 16.40625 L 16.066406 16.40625 L 16.066406 16.320312 L 16.132812 16.253906 L 16.167969 16.269531 L 16.183594 16.199219 L 16.234375 16.269531 L 16.21875 16.320312 L 16.269531 16.304688 L 16.269531 16.253906 L 16.320312 16.269531 L 16.335938 16.199219 L 16.386719 16.21875 L 16.421875 16.167969 L 16.421875 16.21875 L 16.457031 16.21875 L 16.4375 16.167969 L 16.488281 16.167969 L 16.488281 16.132812 L 16.523438 16.132812 L 16.574219 16.183594 L 16.625 16.285156 L 16.59375 16.355469 L 16.59375 16.4375 L 16.644531 16.457031 L 16.675781 16.523438 L 16.675781 16.644531 L 16.726562 16.796875 L 16.761719 16.933594 L 16.746094 17 L 16.761719 17.085938 L 16.796875 17.222656 L 16.828125 17.339844 L 16.828125 17.511719 L 16.863281 17.628906 L 16.863281 17.800781 L 16.898438 17.953125 L 16.898438 18.222656 L 16.914062 18.308594 L 16.933594 18.734375 L 16.949219 19.667969 L 16.964844 20.160156 L 16.964844 21.539062 L 16.984375 22.949219 L 17 23.730469 L 17 23.96875 L 17.015625 24.515625 L 17.015625 27.589844 L 17 28 L 17.101562 27.980469 L 17.152344 27.980469 L 17.015625 28.085938 L 16.949219 28.066406 L 16.746094 27.914062 L 16.421875 27.675781 L 16.015625 27.371094 L 15.691406 27.132812 L 15.402344 26.910156 L 14.824219 26.484375 L 14.652344 26.367188 L 14.636719 26.332031 L 14.636719 24.226562 L 14.601562 24.207031 L 14.621094 24.15625 L 14.636719 22.03125 L 14.636719 21.214844 Z M 14.652344 12.902344 "/>
<path style=" stroke:none;fill-rule:nonzero;fill:rgb(4.313725%,49.803922%,3.529412%);fill-opacity:1;" d="M 24.820312 10.777344 L 24.886719 10.8125 L 25.703125 11.425781 L 26.214844 11.816406 L 26.417969 11.96875 L 26.773438 12.238281 L 26.945312 12.34375 L 27.011719 12.425781 L 27.046875 12.445312 L 27.046875 12.476562 L 27.132812 12.496094 L 27.132812 20.894531 L 27.097656 20.960938 L 26.859375 21.132812 L 26.671875 21.285156 L 26.433594 21.453125 L 26.214844 21.625 L 25.941406 21.828125 L 25.722656 21.996094 L 25.175781 22.40625 L 24.957031 22.574219 L 24.886719 22.59375 L 24.835938 22.574219 L 24.820312 22.507812 L 24.820312 21.214844 L 24.804688 19.617188 L 24.804688 16.746094 L 24.820312 13.839844 Z M 24.820312 10.777344 "/>
<path style=" stroke:none;fill-rule:nonzero;fill:rgb(0%,27.058824%,0%);fill-opacity:1;" d="M 10.796875 13.957031 L 10.8125 13.957031 L 10.828125 14.195312 L 10.8125 14.261719 L 10.847656 14.28125 L 10.847656 14.382812 L 10.863281 14.414062 L 10.878906 14.738281 L 10.898438 14.960938 L 10.878906 15.011719 L 10.914062 15.078125 L 10.898438 15.386719 L 10.929688 15.386719 L 10.929688 15.519531 L 10.949219 15.65625 L 10.929688 15.742188 L 10.949219 15.84375 L 10.980469 15.859375 L 10.949219 15.929688 L 10.980469 15.964844 L 11 16.21875 L 11.050781 16.269531 L 11.03125 16.355469 L 11.066406 16.355469 L 11.117188 16.625 L 11.117188 16.675781 L 11.101562 16.746094 L 11.167969 16.710938 L 11.167969 16.625 L 11.21875 16.574219 L 11.304688 16.609375 L 11.304688 16.660156 L 11.40625 16.644531 L 11.425781 16.710938 L 11.40625 16.746094 L 11.527344 16.695312 L 11.628906 16.695312 L 11.714844 16.59375 L 11.746094 16.59375 L 11.765625 16.675781 L 11.847656 16.625 L 11.847656 16.539062 L 11.949219 16.488281 L 12.003906 16.488281 L 12.003906 16.457031 L 11.898438 16.457031 L 11.898438 16.40625 L 12.019531 16.40625 L 12.15625 16.304688 L 12.207031 16.21875 L 12.238281 16.183594 L 12.324219 16.183594 L 12.34375 16.117188 L 12.476562 16.046875 L 12.5625 16.03125 L 12.613281 16.066406 L 12.578125 16.066406 L 12.578125 16.167969 L 12.632812 16.132812 L 12.632812 16.183594 L 12.664062 16.183594 L 12.683594 16.21875 L 12.765625 16.269531 L 12.785156 16.335938 L 12.75 16.335938 L 12.75 16.457031 L 12.835938 16.472656 L 12.851562 16.644531 L 12.886719 16.644531 L 12.867188 16.777344 L 12.886719 16.933594 L 12.902344 16.984375 L 12.953125 17.035156 L 12.988281 17.304688 L 13.003906 17.355469 L 13.023438 17.628906 L 13.039062 17.730469 L 13.039062 18.003906 L 13.054688 18.222656 L 13.105469 19.753906 L 13.125 21.097656 L 13.125 21.574219 L 13.140625 22.132812 L 13.140625 24.820312 L 13.125 25.277344 L 13.226562 25.261719 L 13.15625 25.328125 L 13.074219 25.328125 L 12.921875 25.195312 L 12.734375 25.058594 L 12.1875 24.648438 L 12.003906 24.515625 L 11.730469 24.308594 L 11.40625 24.070312 L 11.117188 23.851562 L 10.828125 23.648438 L 10.777344 23.597656 L 10.777344 21.488281 L 10.710938 21.472656 L 10.761719 21.421875 L 10.777344 18.699219 L 10.777344 17.832031 Z M 10.796875 13.957031 "/>
<path style=" stroke:none;fill-rule:nonzero;fill:rgb(0%,27.45098%,0%);fill-opacity:1;" d="M 24.804688 10.796875 L 24.820312 10.796875 L 24.835938 11.050781 L 24.835938 14.128906 L 24.820312 17.136719 L 24.820312 19.769531 L 24.835938 21.300781 L 24.835938 22.574219 L 24.921875 22.59375 L 24.886719 22.644531 L 24.820312 22.644531 L 24.804688 22.609375 L 24.71875 22.574219 L 24.515625 22.40625 L 24.242188 22.203125 L 24.003906 22.015625 L 23.730469 21.8125 L 23.425781 21.589844 L 23.308594 21.503906 L 23.257812 21.488281 L 23.238281 22.101562 L 23.222656 22.101562 L 23.222656 18.460938 L 23.238281 12.238281 L 23.238281 11.96875 L 23.339844 11.917969 L 23.460938 11.816406 L 23.578125 11.746094 L 23.765625 11.59375 L 23.851562 11.558594 L 23.851562 11.527344 L 24.175781 11.289062 L 24.480469 11.050781 L 24.71875 10.863281 Z M 24.804688 10.796875 "/>
<path style=" stroke:none;fill-rule:nonzero;fill:rgb(0%,27.058824%,0%);fill-opacity:1;" d="M 6.867188 13.074219 L 6.886719 13.074219 L 6.902344 15.640625 L 6.9375 15.777344 L 6.9375 15.910156 L 6.953125 16.03125 L 6.988281 16.710938 L 7.003906 16.828125 L 7.070312 16.8125 L 7.105469 16.777344 L 7.140625 16.863281 L 7.242188 16.777344 L 7.257812 16.746094 L 7.292969 16.746094 L 7.292969 16.710938 L 7.359375 16.695312 L 7.445312 16.675781 L 7.515625 16.675781 L 7.566406 16.710938 L 7.683594 16.625 L 7.71875 16.644531 L 7.886719 16.609375 L 7.90625 16.644531 L 7.957031 16.59375 L 8.074219 16.574219 L 8.09375 16.523438 L 8.175781 16.558594 L 8.210938 16.472656 L 8.3125 16.386719 L 8.398438 16.421875 L 8.414062 16.507812 L 8.5 16.507812 L 8.5 16.457031 L 8.652344 16.4375 L 8.738281 16.609375 L 8.738281 16.660156 L 8.789062 16.675781 L 8.789062 16.710938 L 8.824219 16.710938 L 8.875 16.949219 L 8.90625 17 L 8.941406 17.171875 L 8.992188 17.339844 L 9.027344 17.527344 L 9.042969 17.59375 L 9.078125 17.917969 L 9.09375 18.089844 L 9.128906 18.648438 L 9.164062 19.242188 L 9.179688 19.363281 L 9.195312 21.453125 L 9.195312 21.964844 L 9.179688 22.574219 L 9.246094 22.609375 L 9.195312 22.644531 L 9.128906 22.628906 L 8.941406 22.492188 L 8.722656 22.320312 L 8.398438 22.082031 L 8.09375 21.84375 L 7.769531 21.605469 L 7.546875 21.4375 L 6.867188 20.925781 L 6.851562 20.875 Z M 6.867188 13.074219 "/>
<path style=" stroke:none;fill-rule:nonzero;fill:rgb(39.607843%,72.156863%,28.235294%);fill-opacity:1;" d="M 17 5.914062 L 17.117188 5.984375 L 17.304688 6.136719 L 17.78125 6.492188 L 18.003906 6.664062 L 18.273438 6.867188 L 18.496094 7.039062 L 18.972656 7.394531 L 19.210938 7.582031 L 19.261719 7.632812 L 19.210938 7.667969 L 19.058594 7.582031 L 18.988281 7.566406 L 18.988281 7.53125 L 18.902344 7.496094 L 18.851562 7.445312 L 18.851562 7.394531 L 18.75 7.394531 L 18.664062 7.308594 L 18.597656 7.257812 L 18.582031 7.226562 L 18.511719 7.207031 L 18.429688 7.15625 L 18.292969 7.070312 L 18.035156 6.902344 L 17.984375 6.886719 L 17.96875 6.9375 L 18.003906 6.9375 L 18.035156 7.019531 L 18.105469 7.054688 L 18.121094 7.105469 L 18.15625 7.140625 L 18.121094 7.175781 L 18.105469 7.378906 L 18.070312 7.410156 L 17.953125 7.410156 L 17.933594 7.445312 L 17.933594 7.53125 L 17.902344 7.546875 L 17.832031 7.515625 L 17.851562 7.546875 L 17.746094 7.566406 L 17.714844 7.480469 L 17.664062 7.480469 L 17.578125 7.566406 L 17.527344 7.515625 L 17.527344 7.445312 L 17.425781 7.445312 L 17.339844 7.394531 L 17.289062 7.394531 L 17.253906 7.277344 L 17.152344 7.292969 L 17.152344 7.410156 L 17.066406 7.480469 L 17.050781 7.597656 L 17.015625 7.597656 L 17 6.460938 Z M 17 5.914062 "/>
<path style=" stroke:none;fill-rule:nonzero;fill:rgb(0%,20.784314%,0.784314%);fill-opacity:1;" d="M 19.328125 18.886719 L 19.347656 18.886719 L 19.363281 19.074219 L 19.378906 19.347656 L 19.398438 19.515625 L 19.378906 19.667969 L 19.398438 19.703125 L 19.414062 20.246094 L 19.414062 20.503906 L 19.429688 20.789062 L 19.429688 21.351562 L 19.449219 21.472656 L 19.449219 21.726562 L 19.464844 22.167969 L 19.480469 22.234375 L 19.480469 22.457031 L 19.5 22.628906 L 19.515625 22.847656 L 19.5 22.914062 L 19.515625 22.96875 L 19.5 23 L 19.53125 23 L 19.550781 23.152344 L 19.585938 23.257812 L 19.566406 23.375 L 19.601562 23.597656 L 19.617188 23.75 L 19.636719 23.78125 L 19.601562 23.78125 L 19.617188 23.96875 L 19.585938 23.96875 L 19.566406 24.070312 L 19.515625 24.089844 L 19.550781 24.207031 L 19.636719 24.292969 L 19.636719 24.328125 L 19.71875 24.359375 L 19.90625 24.480469 L 19.992188 24.546875 L 20.28125 24.734375 L 20.382812 24.785156 L 20.449219 24.855469 L 20.449219 24.886719 L 20.519531 24.921875 L 20.636719 24.972656 L 20.6875 24.855469 L 20.6875 24.753906 L 20.722656 24.734375 L 20.757812 24.753906 L 20.773438 24.683594 L 20.824219 24.667969 L 20.859375 24.753906 L 20.894531 24.921875 L 20.894531 25.3125 L 20.773438 25.246094 L 20.605469 25.109375 L 20.265625 24.855469 L 20.007812 24.648438 L 19.738281 24.445312 L 19.414062 24.207031 L 19.347656 24.15625 L 19.3125 24.15625 L 19.296875 26.332031 L 19.277344 26.332031 L 19.277344 22.183594 L 19.296875 19.226562 L 19.3125 19.160156 L 19.3125 18.9375 Z M 19.328125 18.886719 "/>
<path style=" stroke:none;fill-rule:nonzero;fill:rgb(0%,21.176471%,0.784314%);fill-opacity:1;" d="M 23.238281 18.480469 L 23.257812 18.480469 L 23.273438 18.699219 L 23.273438 18.953125 L 23.289062 19.039062 L 23.257812 19.039062 L 23.273438 19.160156 L 23.308594 19.191406 L 23.308594 19.601562 L 23.339844 19.6875 L 23.339844 20.144531 L 23.359375 20.316406 L 23.359375 20.535156 L 23.410156 20.554688 L 23.390625 20.6875 L 23.441406 20.773438 L 23.441406 21.027344 L 23.460938 21.199219 L 23.460938 21.335938 L 23.410156 21.421875 L 23.410156 21.488281 L 23.460938 21.503906 L 23.527344 21.605469 L 23.648438 21.710938 L 23.714844 21.726562 L 23.714844 21.761719 L 23.800781 21.792969 L 24.039062 21.945312 L 24.191406 22.066406 L 24.328125 22.167969 L 24.410156 22.21875 L 24.496094 22.304688 L 24.597656 22.355469 L 24.632812 22.320312 L 24.683594 22.320312 L 24.667969 22.082031 L 24.734375 21.792969 L 24.785156 21.742188 L 24.804688 21.742188 L 24.820312 21.929688 L 24.835938 22.574219 L 24.921875 22.59375 L 24.886719 22.644531 L 24.820312 22.644531 L 24.804688 22.609375 L 24.71875 22.574219 L 24.515625 22.40625 L 24.242188 22.203125 L 24.003906 22.015625 L 23.730469 21.8125 L 23.425781 21.589844 L 23.308594 21.503906 L 23.257812 21.488281 L 23.238281 22.101562 L 23.222656 22.101562 L 23.222656 18.734375 Z M 23.238281 18.480469 "/>
<path style=" stroke:none;fill-rule:nonzero;fill:rgb(39.607843%,72.156863%,28.235294%);fill-opacity:1;" d="M 20.910156 8.296875 L 20.976562 8.328125 L 21.199219 8.5 L 21.472656 8.703125 L 21.691406 8.875 L 21.964844 9.078125 L 22.253906 9.300781 L 22.59375 9.554688 L 23.101562 9.945312 L 23.222656 10.046875 L 23.222656 10.082031 L 23.121094 10.0625 L 23.121094 10.03125 L 23.085938 10.03125 L 23.050781 9.980469 L 22.949219 9.945312 L 22.882812 9.894531 L 22.882812 9.859375 L 22.847656 9.859375 L 22.847656 9.824219 L 22.8125 9.824219 L 22.8125 9.792969 L 22.746094 9.773438 L 22.660156 9.742188 L 22.59375 9.65625 L 22.472656 9.589844 L 22.472656 9.554688 L 22.421875 9.570312 L 22.355469 9.519531 L 22.234375 9.46875 L 22.183594 9.433594 L 22.183594 9.402344 L 22.117188 9.382812 L 21.996094 9.316406 L 21.914062 9.230469 L 21.84375 9.214844 L 21.84375 9.179688 L 21.777344 9.164062 L 21.640625 9.042969 L 21.574219 9.011719 L 21.574219 8.976562 L 21.472656 8.960938 L 21.402344 8.925781 L 21.367188 8.941406 L 21.367188 8.804688 L 21.300781 8.773438 L 21.300781 8.722656 L 21.214844 8.6875 L 21.132812 8.617188 L 21.046875 8.601562 L 21.027344 8.722656 L 21.0625 8.722656 L 21.0625 8.875 L 21.078125 9.0625 L 21.046875 9.144531 L 21.027344 9.316406 L 20.976562 9.417969 L 20.960938 9.417969 L 20.945312 9.570312 L 20.925781 9.570312 L 20.910156 8.738281 Z M 20.910156 8.296875 "/>
<path style=" stroke:none;fill-rule:nonzero;fill:rgb(39.607843%,72.156863%,28.235294%);fill-opacity:1;" d="M 13.125 8.296875 L 13.226562 8.363281 L 13.429688 8.515625 L 13.71875 8.738281 L 13.941406 8.90625 L 14.210938 9.113281 L 14.449219 9.28125 L 14.449219 9.316406 L 14.519531 9.351562 L 14.601562 9.433594 L 14.621094 9.503906 L 14.601562 9.960938 L 14.585938 10.300781 L 14.519531 10.285156 L 14.535156 10.148438 L 14.5 9.980469 L 14.5 9.535156 L 14.414062 9.453125 L 14.382812 9.453125 L 14.3125 9.382812 L 14.3125 9.351562 L 14.246094 9.332031 L 14.195312 9.28125 L 14.179688 9.230469 L 14.09375 9.195312 L 13.957031 9.09375 L 13.941406 9.027344 L 13.890625 9.027344 L 13.890625 8.992188 L 13.820312 9.011719 L 13.683594 8.890625 L 13.683594 8.855469 L 13.632812 8.875 L 13.632812 8.839844 L 13.566406 8.824219 L 13.480469 8.738281 L 13.464844 8.671875 L 13.378906 8.585938 L 13.292969 8.535156 L 13.261719 8.535156 L 13.261719 8.566406 L 13.292969 8.566406 L 13.261719 8.671875 L 13.277344 8.703125 L 13.277344 8.824219 L 13.34375 8.976562 L 13.414062 9.113281 L 13.394531 9.164062 L 13.3125 9.179688 L 13.277344 9.316406 L 13.210938 9.417969 L 13.15625 9.433594 L 13.140625 9.367188 Z M 13.125 8.296875 "/>
<path style=" stroke:none;fill-rule:nonzero;fill:rgb(39.607843%,72.156863%,28.235294%);fill-opacity:1;" d="M 24.835938 10.777344 L 24.988281 10.878906 L 25.175781 11.03125 L 25.414062 11.203125 L 25.722656 11.441406 L 25.90625 11.578125 L 26.214844 11.816406 L 26.417969 11.96875 L 26.773438 12.238281 L 26.773438 12.289062 L 26.65625 12.1875 L 26.484375 12.085938 L 26.453125 12.035156 L 26.402344 12.019531 L 26.316406 11.933594 L 26.230469 11.933594 L 26.246094 11.882812 L 26.195312 11.882812 L 26.113281 11.796875 L 26.042969 11.796875 L 26.042969 11.765625 L 25.925781 11.730469 L 25.855469 11.660156 L 25.773438 11.644531 L 25.773438 11.609375 L 25.671875 11.578125 L 25.671875 11.542969 L 25.585938 11.527344 L 25.433594 11.390625 L 25.363281 11.320312 L 25.3125 11.304688 L 25.246094 11.21875 L 25.261719 11.1875 L 25.210938 11.203125 L 25.175781 11.136719 L 25.125 11.085938 L 25.09375 11 L 25.039062 11 L 25.023438 10.964844 L 24.957031 11.015625 L 24.886719 11 L 24.90625 11.066406 L 24.886719 11.085938 L 24.886719 11.714844 L 24.855469 11.679688 Z M 24.835938 10.777344 "/>
<path style=" stroke:none;fill-rule:nonzero;fill:rgb(0%,20.784314%,0.784314%);fill-opacity:1;" d="M 11.371094 24.019531 L 11.476562 24.054688 L 11.507812 24.070312 L 11.507812 24.105469 L 11.542969 24.105469 L 11.542969 24.140625 L 11.609375 24.175781 L 11.679688 24.226562 L 11.796875 24.277344 L 11.882812 24.359375 L 12.070312 24.480469 L 12.105469 24.546875 L 12.171875 24.566406 L 12.394531 24.71875 L 12.546875 24.820312 L 12.734375 24.957031 L 12.867188 25.058594 L 12.988281 25.039062 L 13.023438 24.921875 L 13.003906 24.871094 L 13.054688 24.871094 L 13.105469 24.9375 L 13.125 25.277344 L 13.226562 25.261719 L 13.15625 25.328125 L 13.074219 25.328125 L 12.921875 25.195312 L 12.734375 25.058594 L 12.1875 24.648438 L 12.003906 24.515625 L 11.730469 24.308594 L 11.40625 24.070312 Z M 11.371094 24.019531 "/>
<path style=" stroke:none;fill-rule:nonzero;fill:rgb(0.392157%,20.784314%,1.176471%);fill-opacity:1;" d="M 15.164062 26.671875 L 15.28125 26.742188 L 15.28125 26.792969 L 15.335938 26.792969 L 15.335938 26.824219 L 15.367188 26.824219 L 15.367188 26.859375 L 15.488281 26.894531 L 15.554688 26.945312 L 15.554688 26.980469 L 15.621094 26.996094 L 15.65625 27.046875 L 15.792969 27.113281 L 15.945312 27.234375 L 16.269531 27.453125 L 16.507812 27.640625 L 16.558594 27.660156 L 16.59375 27.710938 L 16.828125 27.828125 L 16.847656 27.761719 L 16.882812 27.777344 L 16.882812 27.726562 L 16.914062 27.726562 L 16.914062 27.8125 L 16.949219 27.8125 L 16.964844 27.898438 L 16.949219 27.964844 L 16.964844 28.066406 L 16.847656 28 L 16.675781 27.863281 L 16.03125 27.386719 L 15.808594 27.21875 L 15.488281 26.980469 L 15.265625 26.808594 L 15.128906 26.707031 Z M 15.164062 26.671875 "/>
<path style=" stroke:none;fill-rule:nonzero;fill:rgb(39.607843%,72.156863%,28.235294%);fill-opacity:1;" d="M 9.453125 11.015625 L 9.535156 11.050781 L 9.722656 11.203125 L 9.910156 11.339844 L 10.320312 11.644531 L 10.640625 11.882812 L 10.726562 11.949219 L 10.742188 12.054688 L 10.625 12.070312 L 10.589844 12.003906 L 10.558594 12.003906 L 10.558594 11.949219 L 10.488281 11.933594 L 10.472656 11.882812 L 10.421875 11.867188 L 10.371094 11.816406 L 10.351562 11.78125 L 10.269531 11.78125 L 10.199219 11.714844 L 10.199219 11.679688 L 10.148438 11.679688 L 10.148438 11.644531 L 10.082031 11.628906 L 9.996094 11.578125 L 9.929688 11.492188 L 9.808594 11.390625 L 9.722656 11.304688 L 9.707031 11.253906 L 9.640625 11.238281 L 9.554688 11.152344 L 9.535156 11.085938 L 9.46875 11.050781 Z M 9.453125 11.015625 "/>
<path style=" stroke:none;fill-rule:nonzero;fill:rgb(34.117647%,68.627451%,24.313725%);fill-opacity:1;" d="M 26.367188 3.859375 L 26.433594 3.875 L 26.671875 4.046875 L 26.910156 4.234375 L 27.21875 4.472656 L 27.472656 4.691406 L 27.691406 4.878906 L 27.914062 5.082031 L 28.050781 5.203125 L 28.1875 5.339844 L 28.320312 5.457031 L 28.628906 5.761719 L 28.644531 5.8125 L 28.609375 5.8125 L 28.609375 5.78125 L 28.578125 5.78125 L 28.457031 5.644531 L 28.203125 5.390625 L 28.066406 5.304688 L 28.066406 5.269531 L 28 5.253906 L 27.777344 5.03125 L 27.640625 4.914062 L 27.539062 4.828125 L 27.453125 4.742188 L 27.21875 4.554688 L 27.183594 4.488281 L 27.082031 4.453125 L 26.910156 4.285156 L 26.84375 4.25 L 26.84375 4.214844 L 26.707031 4.148438 L 26.707031 4.113281 L 26.640625 4.078125 L 26.453125 3.945312 L 26.453125 3.910156 L 26.402344 3.910156 L 26.402344 3.875 Z M 26.367188 3.859375 "/>
<path style=" stroke:none;fill-rule:nonzero;fill:rgb(0.392157%,20.784314%,1.176471%);fill-opacity:1;" d="M 14.652344 24.191406 L 14.6875 24.226562 L 14.738281 24.328125 L 14.703125 24.445312 L 14.652344 24.496094 L 14.6875 24.515625 L 14.671875 24.566406 L 14.671875 25.5 L 14.6875 25.804688 L 14.703125 25.941406 L 14.703125 26.144531 L 14.722656 26.316406 L 14.738281 26.367188 L 14.808594 26.402344 L 14.890625 26.484375 L 14.992188 26.554688 L 14.992188 26.589844 L 14.925781 26.554688 L 14.652344 26.367188 L 14.636719 26.332031 L 14.636719 24.226562 L 14.601562 24.207031 Z M 14.652344 24.191406 "/>
<path style=" stroke:none;fill-rule:nonzero;fill:rgb(0.392157%,20.784314%,1.176471%);fill-opacity:1;" d="M 8.09375 21.828125 L 8.210938 21.863281 L 8.210938 21.894531 L 8.246094 21.894531 L 8.246094 21.929688 L 8.3125 21.964844 L 8.433594 22.03125 L 8.585938 22.132812 L 8.753906 22.269531 L 8.960938 22.40625 L 9.078125 22.390625 L 9.113281 22.371094 L 9.113281 22.40625 L 9.144531 22.40625 L 9.164062 22.59375 L 9.195312 22.644531 L 9.128906 22.628906 L 8.941406 22.492188 L 8.722656 22.320312 L 8.398438 22.082031 L 8.09375 21.84375 Z M 8.09375 21.828125 "/>
<path style=" stroke:none;fill-rule:nonzero;fill:rgb(37.647059%,70.980392%,26.666667%);fill-opacity:1;" d="M 28.765625 5.949219 L 28.832031 5.984375 L 29.035156 6.203125 L 29.1875 6.375 L 29.34375 6.5625 L 29.546875 6.800781 L 29.714844 7.019531 L 29.902344 7.257812 L 29.886719 7.292969 L 29.765625 7.175781 L 29.765625 7.140625 L 29.734375 7.140625 L 29.648438 7.003906 L 29.648438 6.96875 L 29.578125 6.9375 L 29.5625 6.886719 L 29.511719 6.867188 L 29.445312 6.765625 L 29.257812 6.527344 L 29.171875 6.460938 L 29.085938 6.375 L 29.085938 6.339844 L 29.054688 6.339844 L 29.054688 6.308594 L 29.019531 6.308594 L 28.949219 6.203125 L 28.949219 6.152344 L 28.882812 6.136719 L 28.882812 6.085938 L 28.816406 6.050781 L 28.765625 5.984375 Z M 28.765625 5.949219 "/>
<path style=" stroke:none;fill-rule:nonzero;fill:rgb(0%,20.784314%,0.784314%);fill-opacity:1;" d="M 10.742188 21.453125 L 10.796875 21.472656 L 10.8125 21.625 L 10.8125 23.5625 L 10.828125 23.613281 L 10.898438 23.628906 L 10.898438 23.664062 L 10.949219 23.664062 L 10.949219 23.699219 L 10.980469 23.699219 L 10.980469 23.730469 L 10.898438 23.699219 L 10.777344 23.597656 L 10.777344 21.488281 L 10.710938 21.472656 Z M 10.742188 21.453125 "/>
<path style=" stroke:none;fill-rule:nonzero;fill:rgb(38.039216%,71.372549%,27.45098%);fill-opacity:1;" d="M 23.597656 2.277344 L 23.699219 2.296875 L 24.359375 2.617188 L 24.785156 2.839844 L 24.9375 2.925781 L 24.921875 2.957031 L 24.820312 2.925781 L 24.820312 2.890625 L 24.753906 2.871094 L 24.582031 2.769531 L 23.800781 2.398438 L 23.597656 2.296875 Z M 23.597656 2.277344 "/>
<path style=" stroke:none;fill-rule:nonzero;fill:rgb(39.215686%,71.764706%,27.843137%);fill-opacity:1;" d="M 9.179688 10.796875 L 9.453125 11 L 9.382812 11.015625 L 9.28125 11 L 9.246094 11.101562 L 9.246094 11.339844 L 9.214844 11.40625 L 9.195312 11.339844 Z M 9.179688 10.796875 "/>
<path style=" stroke:none;fill-rule:nonzero;fill:rgb(37.254902%,70.588235%,26.666667%);fill-opacity:1;" d="M 29.308594 6.578125 L 29.375 6.597656 L 29.613281 6.886719 L 29.816406 7.15625 L 29.902344 7.257812 L 29.886719 7.292969 L 29.765625 7.175781 L 29.765625 7.140625 L 29.734375 7.140625 L 29.648438 7.003906 L 29.648438 6.96875 L 29.578125 6.9375 L 29.5625 6.886719 L 29.511719 6.867188 L 29.445312 6.765625 L 29.308594 6.597656 Z M 29.308594 6.578125 "/>
<path style=" stroke:none;fill-rule:nonzero;fill:rgb(32.156863%,67.45098%,23.137255%);fill-opacity:1;" d="M 25.414062 3.214844 L 25.652344 3.347656 L 26.027344 3.585938 L 26.246094 3.738281 L 26.214844 3.757812 L 26.113281 3.707031 L 26.113281 3.671875 L 26.027344 3.636719 L 25.90625 3.570312 L 25.90625 3.535156 L 25.839844 3.519531 L 25.6875 3.417969 L 25.636719 3.398438 L 25.636719 3.367188 L 25.566406 3.347656 L 25.414062 3.246094 Z M 25.414062 3.214844 "/>
<path style=" stroke:none;fill-rule:nonzero;fill:rgb(40%,72.54902%,28.627451%);fill-opacity:1;" d="M 26.09375 11.730469 L 26.230469 11.832031 L 26.417969 11.96875 L 26.773438 12.238281 L 26.773438 12.289062 L 26.65625 12.1875 L 26.484375 12.085938 L 26.453125 12.035156 L 26.402344 12.019531 L 26.316406 11.933594 L 26.230469 11.933594 L 26.246094 11.882812 L 26.195312 11.882812 L 26.09375 11.765625 Z M 26.09375 11.730469 "/>
<path style=" stroke:none;fill-rule:nonzero;fill:rgb(36.862745%,70.196078%,26.27451%);fill-opacity:1;" d="M 5.132812 6.019531 L 5.152344 6.050781 L 5.082031 6.136719 L 5.050781 6.1875 L 4.996094 6.273438 L 4.945312 6.324219 L 4.914062 6.324219 L 4.914062 6.359375 L 4.878906 6.359375 L 4.84375 6.425781 L 4.726562 6.527344 L 4.710938 6.5625 L 4.675781 6.5625 L 4.710938 6.492188 L 4.914062 6.273438 L 5.066406 6.085938 Z M 5.132812 6.019531 "/>
<path style=" stroke:none;fill-rule:nonzero;fill:rgb(40%,72.54902%,28.627451%);fill-opacity:1;" d="M 13.515625 9.0625 L 13.550781 9.09375 L 13.550781 9.179688 L 13.632812 9.214844 L 13.703125 9.214844 L 13.734375 9.316406 L 13.667969 9.332031 L 13.582031 9.28125 L 13.582031 9.230469 L 13.496094 9.214844 L 13.480469 9.09375 Z M 13.515625 9.0625 "/>
<path style=" stroke:none;fill-rule:nonzero;fill:rgb(36.078431%,69.803922%,25.882353%);fill-opacity:1;" d="M 26.367188 3.859375 L 26.433594 3.875 L 26.671875 4.046875 L 26.808594 4.148438 L 26.773438 4.183594 L 26.707031 4.148438 L 26.707031 4.113281 L 26.640625 4.078125 L 26.453125 3.945312 L 26.453125 3.910156 L 26.402344 3.910156 L 26.402344 3.875 Z M 26.367188 3.859375 "/>
<path style=" stroke:none;fill-rule:nonzero;fill:rgb(0%,20.784314%,0.784314%);fill-opacity:1;" d="M 15.859375 26.113281 L 16.046875 26.113281 L 16.015625 26.179688 L 15.945312 26.195312 L 15.945312 26.230469 L 15.859375 26.214844 L 15.84375 26.128906 Z M 15.859375 26.113281 "/>
<path style=" stroke:none;fill-rule:nonzero;fill:rgb(36.078431%,70.196078%,25.882353%);fill-opacity:1;" d="M 33.066406 18.171875 L 33.082031 18.171875 L 33.097656 18.429688 L 33.066406 18.71875 L 33.046875 18.71875 L 33.046875 18.359375 Z M 33.066406 18.171875 "/>
<path style=" stroke:none;fill-rule:nonzero;fill:rgb(0%,25.882353%,0%);fill-opacity:1;" d="M 16.964844 27.898438 L 16.984375 27.898438 L 17 28 L 17.101562 27.980469 L 17.152344 27.980469 L 17.015625 28.085938 L 16.964844 28.085938 L 16.933594 27.949219 Z M 16.964844 27.898438 "/>
<path style=" stroke:none;fill-rule:nonzero;fill:rgb(34.901961%,69.019608%,24.705882%);fill-opacity:1;" d="M 29.648438 6.988281 L 29.714844 7.019531 L 29.902344 7.257812 L 29.886719 7.292969 L 29.765625 7.175781 L 29.765625 7.140625 L 29.734375 7.140625 Z M 29.648438 6.988281 "/>
<path style=" stroke:none;fill-rule:nonzero;fill:rgb(35.294118%,69.411765%,25.490196%);fill-opacity:1;" d="M 23.222656 2.089844 L 23.578125 2.242188 L 23.578125 2.277344 L 23.511719 2.277344 L 23.511719 2.242188 L 23.441406 2.226562 L 23.324219 2.175781 L 23.222656 2.125 Z M 23.222656 2.089844 "/>
<path style=" stroke:none;fill-rule:nonzero;fill:rgb(31.764706%,67.058824%,22.745098%);fill-opacity:1;" d="M 24.617188 2.753906 L 24.804688 2.855469 L 24.9375 2.925781 L 24.921875 2.957031 L 24.820312 2.925781 L 24.820312 2.890625 L 24.753906 2.871094 L 24.617188 2.789062 Z M 24.617188 2.753906 "/>
<path style=" stroke:none;fill-rule:nonzero;fill:rgb(34.117647%,68.627451%,24.313725%);fill-opacity:1;" d="M 25.414062 3.214844 L 25.652344 3.347656 L 25.753906 3.417969 L 25.703125 3.433594 L 25.636719 3.398438 L 25.636719 3.367188 L 25.566406 3.347656 L 25.414062 3.246094 Z M 25.414062 3.214844 "/>
<path style=" stroke:none;fill-rule:nonzero;fill:rgb(0%,20.784314%,0.784314%);fill-opacity:1;" d="M 15.757812 25.839844 L 15.878906 25.855469 L 15.894531 25.890625 L 15.859375 25.925781 L 15.808594 25.90625 L 15.777344 25.976562 L 15.742188 25.90625 Z M 15.757812 25.839844 "/>
<path style=" stroke:none;fill-rule:nonzero;fill:rgb(33.72549%,68.627451%,24.313725%);fill-opacity:1;" d="M 25.074219 3.027344 L 25.160156 3.058594 L 25.398438 3.195312 L 25.398438 3.230469 L 25.296875 3.195312 L 25.296875 3.160156 L 25.226562 3.144531 L 25.074219 3.042969 Z M 25.074219 3.027344 "/>
<path style=" stroke:none;fill-rule:nonzero;fill:rgb(0.392157%,20.784314%,1.176471%);fill-opacity:1;" d="M 6.851562 20.535156 L 6.867188 20.535156 L 6.902344 20.894531 L 6.9375 20.960938 L 6.867188 20.925781 L 6.851562 20.875 Z M 6.851562 20.535156 "/>
<path style=" stroke:none;fill-rule:nonzero;fill:rgb(0%,26.27451%,0%);fill-opacity:1;" d="M 20.894531 25.109375 L 20.910156 25.109375 L 20.910156 25.277344 L 20.945312 25.277344 L 20.960938 25.328125 L 20.894531 25.347656 L 20.875 25.125 Z M 20.894531 25.109375 "/>
<path style=" stroke:none;fill-rule:nonzero;fill:rgb(37.254902%,70.980392%,26.666667%);fill-opacity:1;" d="M 4.65625 6.5625 L 4.675781 6.613281 L 4.605469 6.648438 L 4.574219 6.75 L 4.503906 6.765625 L 4.539062 6.699219 Z M 4.65625 6.5625 "/>
<path style=" stroke:none;fill-rule:nonzero;fill:rgb(38.431373%,71.372549%,27.45098%);fill-opacity:1;" d="M 13.515625 8.960938 L 13.582031 8.992188 L 13.601562 9.078125 L 13.515625 9.042969 L 13.496094 8.992188 Z M 13.515625 8.960938 "/>
</g>
</svg>
